<?xml version="1.0" ?><svg style="enable-background:new 0 0 512 512;" version="1.1" viewBox="0 0 512 512" xml:space="preserve" xmlns="http://www.w3.org/2000/svg" xmlns:xlink="http://www.w3.org/1999/xlink"><style type="text/css">
	.st0{fill:#16ADE1;}
	.st1{fill:#4275d8;}
</style><g id="Layer_1"/><g id="Layer_2"><g><path class="st1" d="M431.6,296.4c-7-3.2-14.5-5.4-22.4-6.3c0.1,1.1,0.2,2.2,0.2,3.3v151.1c38.3-4.9,67.8-37.6,67.8-77.2    C477.2,335.8,458.5,308.7,431.6,296.4z"/><path class="st0" d="M393.9,280.2c-3.4-3.4-8.1-5.5-13.2-5.5c-10.3,0-18.7,8.4-18.7,18.7v158.9c0,10.3,8.4,18.7,18.7,18.7    c10.3,0,18.7-8.4,18.7-18.7V293.4c0-1.4-0.1-2.7-0.4-4C398.1,285.9,396.4,282.7,393.9,280.2z"/><path class="st1" d="M34.8,367.3c0,39.6,29.6,72.3,67.8,77.2V293.4c0-1.1,0.1-2.2,0.2-3.3c-7.9,1-15.4,3.2-22.4,6.3    C53.5,308.7,34.8,335.8,34.8,367.3z"/><path class="st0" d="M131.4,274.7c-5.2,0-9.8,2.1-13.2,5.5c-2.5,2.5-4.3,5.7-5.1,9.3c-0.3,1.3-0.4,2.6-0.4,4v158.9    c0,10.3,8.4,18.7,18.7,18.7c10.3,0,18.7-8.4,18.7-18.7V293.4C150,283.1,141.7,274.7,131.4,274.7z"/><path class="st1" d="M431.6,238.2c0-38.7-12.8-76.2-36.2-106.8l-23.4,20.2c18.6,24.9,28.8,55.3,28.8,86.6v34.7    c0.1,0.1,0.1,0.1,0.2,0.2c2,2,3.6,4.2,4.9,6.6c8.8,0.7,17.5,2.6,25.7,5.9V238.2z"/><path class="st1" d="M116.6,131.4C93.2,162,80.4,199.5,80.4,238.2v47.4c8.2-3.3,16.9-5.2,25.7-5.9c1.3-2.4,3-4.6,4.9-6.6    c0.1-0.1,0.1-0.1,0.2-0.2v-34.7c0-31.3,10.1-61.7,28.8-86.6L116.6,131.4z"/><path class="st0" d="M256,41c-57.5,0-111.9,25-149.4,68.6l56.1,48.3c23.4-27.2,57.5-42.8,93.3-42.8s69.9,15.6,93.3,42.8l56.1-48.3    C367.9,66,313.5,41,256,41z M288.4,65.5c-0.4,2.7-3,4.6-5.7,4.2c-18.1-2.9-36.8-2.8-54.9,0.3c-0.3,0-0.6,0.1-0.8,0.1    c-2.4,0-4.5-1.7-4.9-4.2c-0.5-2.7,1.4-5.3,4.1-5.8c19.1-3.2,39-3.3,58.1-0.3C286.9,60.2,288.8,62.8,288.4,65.5z"/></g></g></svg>